<?xml version="1.0" encoding="utf-8" standalone="no"?>
<!DOCTYPE svg PUBLIC "-//W3C//DTD SVG 1.1//EN"
  "http://www.w3.org/Graphics/SVG/1.1/DTD/svg11.dtd">
<svg xmlns:xlink="http://www.w3.org/1999/xlink" width="151.2pt" height="126pt" viewBox="0 0 151.2 126" xmlns="http://www.w3.org/2000/svg" version="1.1">
 <metadata>
  <rdf:RDF xmlns:dc="http://purl.org/dc/elements/1.1/" xmlns:cc="http://creativecommons.org/ns#" xmlns:rdf="http://www.w3.org/1999/02/22-rdf-syntax-ns#">
   <cc:Work>
    <dc:type rdf:resource="http://purl.org/dc/dcmitype/StillImage"/>
    <dc:date>2026-04-05T09:32:55.922482</dc:date>
    <dc:format>image/svg+xml</dc:format>
    <dc:creator>
     <cc:Agent>
      <dc:title>Matplotlib v3.10.8, https://matplotlib.org/</dc:title>
     </cc:Agent>
    </dc:creator>
   </cc:Work>
  </rdf:RDF>
 </metadata>
 <defs>
  <style type="text/css">*{stroke-linejoin: round; stroke-linecap: butt}</style>
 </defs>
 <g id="figure_1">
  <g id="patch_1">
   <path d="M 0 126 
L 151.2 126 
L 151.2 0 
L 0 0 
L 0 126 
z
" style="fill: none"/>
  </g>
  <g id="axes_1">
   <g id="patch_2">
    <path d="M 43.2 97.2 
L 144 97.2 
L 144 7.2 
L 43.2 7.2 
L 43.2 97.2 
z
" style="fill: none"/>
   </g>
   <g id="PathCollection_1">
    <defs>
     <path id="m9923617e7e" d="M -1.581139 1.581139 
L 1.581139 -1.581139 
M -1.581139 -1.581139 
L 1.581139 1.581139 
" style="stroke: #000000"/>
    </defs>
    <g clip-path="url(#p77b3c83b55)">
     <use xlink:href="#m9923617e7e" x="75.395289" y="52.2" style="stroke: #000000"/>
    </g>
   </g>
   <g id="matplotlib.axis_1">
    <g id="xtick_1">
     <g id="line2d_1">
      <defs>
       <path id="m8f130d0656" d="M 0 0 
L 0 3 
" style="stroke: #000000; stroke-width: 0.8"/>
      </defs>
      <g>
       <use xlink:href="#m8f130d0656" x="63.862955" y="97.2" style="stroke: #000000; stroke-width: 0.8"/>
      </g>
     </g>
     <g id="text_1">
      <!-- $V_\mathsf{out,low}$    -->
      <g transform="translate(50.752955 107.58) scale(0.06 -0.06)">
       <defs>
        <path id="DejaVuSans-Oblique-56" d="M 1319 0 
L 500 4666 
L 1119 4666 
L 1797 653 
L 4063 4666 
L 4750 4666 
L 2053 0 
L 1319 0 
z
" transform="scale(0.015625)"/>
        <path id="DejaVuSans-6f" d="M 1959 3097 
Q 1497 3097 1228 2736 
Q 959 2375 959 1747 
Q 959 1119 1226 758 
Q 1494 397 1959 397 
Q 2419 397 2687 759 
Q 2956 1122 2956 1747 
Q 2956 2369 2687 2733 
Q 2419 3097 1959 3097 
z
M 1959 3584 
Q 2709 3584 3137 3096 
Q 3566 2609 3566 1747 
Q 3566 888 3137 398 
Q 2709 -91 1959 -91 
Q 1206 -91 779 398 
Q 353 888 353 1747 
Q 353 2609 779 3096 
Q 1206 3584 1959 3584 
z
" transform="scale(0.015625)"/>
        <path id="DejaVuSans-75" d="M 544 1381 
L 544 3500 
L 1119 3500 
L 1119 1403 
Q 1119 906 1312 657 
Q 1506 409 1894 409 
Q 2359 409 2629 706 
Q 2900 1003 2900 1516 
L 2900 3500 
L 3475 3500 
L 3475 0 
L 2900 0 
L 2900 538 
Q 2691 219 2414 64 
Q 2138 -91 1772 -91 
Q 1169 -91 856 284 
Q 544 659 544 1381 
z
M 1991 3584 
L 1991 3584 
z
" transform="scale(0.015625)"/>
        <path id="DejaVuSans-74" d="M 1172 4494 
L 1172 3500 
L 2356 3500 
L 2356 3053 
L 1172 3053 
L 1172 1153 
Q 1172 725 1289 603 
Q 1406 481 1766 481 
L 2356 481 
L 2356 0 
L 1766 0 
Q 1100 0 847 248 
Q 594 497 594 1153 
L 594 3053 
L 172 3053 
L 172 3500 
L 594 3500 
L 594 4494 
L 1172 4494 
z
" transform="scale(0.015625)"/>
        <path id="DejaVuSans-2c" d="M 750 794 
L 1409 794 
L 1409 256 
L 897 -744 
L 494 -744 
L 750 256 
L 750 794 
z
" transform="scale(0.015625)"/>
        <path id="DejaVuSans-6c" d="M 603 4863 
L 1178 4863 
L 1178 0 
L 603 0 
L 603 4863 
z
" transform="scale(0.015625)"/>
        <path id="DejaVuSans-77" d="M 269 3500 
L 844 3500 
L 1563 769 
L 2278 3500 
L 2956 3500 
L 3675 769 
L 4391 3500 
L 4966 3500 
L 4050 0 
L 3372 0 
L 2619 2869 
L 1863 0 
L 1184 0 
L 269 3500 
z
" transform="scale(0.015625)"/>
        <path id="DejaVuSans-20" transform="scale(0.015625)"/>
       </defs>
       <use xlink:href="#DejaVuSans-Oblique-56" transform="translate(0 0.09375)"/>
       <use xlink:href="#DejaVuSans-6f" transform="translate(68.408203 -16.3125) scale(0.7)"/>
       <use xlink:href="#DejaVuSans-75" transform="translate(111.235352 -16.3125) scale(0.7)"/>
       <use xlink:href="#DejaVuSans-74" transform="translate(155.600586 -16.3125) scale(0.7)"/>
       <use xlink:href="#DejaVuSans-2c" transform="translate(183.046875 -16.3125) scale(0.7)"/>
       <use xlink:href="#DejaVuSans-6c" transform="translate(218.935547 -16.3125) scale(0.7)"/>
       <use xlink:href="#DejaVuSans-6f" transform="translate(238.383789 -16.3125) scale(0.7)"/>
       <use xlink:href="#DejaVuSans-77" transform="translate(281.210938 -16.3125) scale(0.7)"/>
       <use xlink:href="#DejaVuSans-20" transform="translate(341.196289 0.09375)"/>
       <use xlink:href="#DejaVuSans-20" transform="translate(372.983398 0.09375)"/>
       <use xlink:href="#DejaVuSans-20" transform="translate(404.770508 0.09375)"/>
      </g>
     </g>
    </g>
    <g id="xtick_2">
     <g id="line2d_2">
      <g>
       <use xlink:href="#m8f130d0656" x="75.395289" y="97.2" style="stroke: #000000; stroke-width: 0.8"/>
      </g>
     </g>
     <g id="text_2">
      <!-- $V_\mathsf{M}$ -->
      <g transform="translate(71.435289 107.759062) scale(0.06 -0.06)">
       <defs>
        <path id="DejaVuSans-4d" d="M 628 4666 
L 1569 4666 
L 2759 1491 
L 3956 4666 
L 4897 4666 
L 4897 0 
L 4281 0 
L 4281 4097 
L 3078 897 
L 2444 897 
L 1241 4097 
L 1241 0 
L 628 0 
L 628 4666 
z
" transform="scale(0.015625)"/>
       </defs>
       <use xlink:href="#DejaVuSans-Oblique-56" transform="translate(0 0.09375)"/>
       <use xlink:href="#DejaVuSans-4d" transform="translate(68.408203 -16.3125) scale(0.7)"/>
      </g>
     </g>
    </g>
    <g id="xtick_3">
     <g id="line2d_3">
      <g>
       <use xlink:href="#m8f130d0656" x="123.84" y="97.2" style="stroke: #000000; stroke-width: 0.8"/>
      </g>
     </g>
     <g id="text_3">
      <!-- $V_\mathsf{out,high}$ -->
      <g transform="translate(112.59 107.58) scale(0.06 -0.06)">
       <defs>
        <path id="DejaVuSans-68" d="M 3513 2113 
L 3513 0 
L 2938 0 
L 2938 2094 
Q 2938 2591 2744 2837 
Q 2550 3084 2163 3084 
Q 1697 3084 1428 2787 
Q 1159 2491 1159 1978 
L 1159 0 
L 581 0 
L 581 4863 
L 1159 4863 
L 1159 2956 
Q 1366 3272 1645 3428 
Q 1925 3584 2291 3584 
Q 2894 3584 3203 3211 
Q 3513 2838 3513 2113 
z
" transform="scale(0.015625)"/>
        <path id="DejaVuSans-69" d="M 603 3500 
L 1178 3500 
L 1178 0 
L 603 0 
L 603 3500 
z
M 603 4863 
L 1178 4863 
L 1178 4134 
L 603 4134 
L 603 4863 
z
" transform="scale(0.015625)"/>
        <path id="DejaVuSans-67" d="M 2906 1791 
Q 2906 2416 2648 2759 
Q 2391 3103 1925 3103 
Q 1463 3103 1205 2759 
Q 947 2416 947 1791 
Q 947 1169 1205 825 
Q 1463 481 1925 481 
Q 2391 481 2648 825 
Q 2906 1169 2906 1791 
z
M 3481 434 
Q 3481 -459 3084 -895 
Q 2688 -1331 1869 -1331 
Q 1566 -1331 1297 -1286 
Q 1028 -1241 775 -1147 
L 775 -588 
Q 1028 -725 1275 -790 
Q 1522 -856 1778 -856 
Q 2344 -856 2625 -561 
Q 2906 -266 2906 331 
L 2906 616 
Q 2728 306 2450 153 
Q 2172 0 1784 0 
Q 1141 0 747 490 
Q 353 981 353 1791 
Q 353 2603 747 3093 
Q 1141 3584 1784 3584 
Q 2172 3584 2450 3431 
Q 2728 3278 2906 2969 
L 2906 3500 
L 3481 3500 
L 3481 434 
z
" transform="scale(0.015625)"/>
       </defs>
       <use xlink:href="#DejaVuSans-Oblique-56" transform="translate(0 0.09375)"/>
       <use xlink:href="#DejaVuSans-6f" transform="translate(68.408203 -16.3125) scale(0.7)"/>
       <use xlink:href="#DejaVuSans-75" transform="translate(111.235352 -16.3125) scale(0.7)"/>
       <use xlink:href="#DejaVuSans-74" transform="translate(155.600586 -16.3125) scale(0.7)"/>
       <use xlink:href="#DejaVuSans-2c" transform="translate(183.046875 -16.3125) scale(0.7)"/>
       <use xlink:href="#DejaVuSans-68" transform="translate(218.935547 -16.3125) scale(0.7)"/>
       <use xlink:href="#DejaVuSans-69" transform="translate(263.300781 -16.3125) scale(0.7)"/>
       <use xlink:href="#DejaVuSans-67" transform="translate(282.749023 -16.3125) scale(0.7)"/>
       <use xlink:href="#DejaVuSans-68" transform="translate(327.182617 -16.3125) scale(0.7)"/>
      </g>
     </g>
    </g>
    <g id="text_4">
     <!-- Input Voltage, $V_\mathsf{in}$ [V] -->
     <g transform="translate(51.56 119.52) scale(0.08 -0.08)">
      <defs>
       <path id="DejaVuSans-49" d="M 628 4666 
L 1259 4666 
L 1259 0 
L 628 0 
L 628 4666 
z
" transform="scale(0.015625)"/>
       <path id="DejaVuSans-6e" d="M 3513 2113 
L 3513 0 
L 2938 0 
L 2938 2094 
Q 2938 2591 2744 2837 
Q 2550 3084 2163 3084 
Q 1697 3084 1428 2787 
Q 1159 2491 1159 1978 
L 1159 0 
L 581 0 
L 581 3500 
L 1159 3500 
L 1159 2956 
Q 1366 3272 1645 3428 
Q 1925 3584 2291 3584 
Q 2894 3584 3203 3211 
Q 3513 2838 3513 2113 
z
" transform="scale(0.015625)"/>
       <path id="DejaVuSans-70" d="M 1159 525 
L 1159 -1331 
L 581 -1331 
L 581 3500 
L 1159 3500 
L 1159 2969 
Q 1341 3281 1617 3432 
Q 1894 3584 2278 3584 
Q 2916 3584 3314 3078 
Q 3713 2572 3713 1747 
Q 3713 922 3314 415 
Q 2916 -91 2278 -91 
Q 1894 -91 1617 61 
Q 1341 213 1159 525 
z
M 3116 1747 
Q 3116 2381 2855 2742 
Q 2594 3103 2138 3103 
Q 1681 3103 1420 2742 
Q 1159 2381 1159 1747 
Q 1159 1113 1420 752 
Q 1681 391 2138 391 
Q 2594 391 2855 752 
Q 3116 1113 3116 1747 
z
" transform="scale(0.015625)"/>
       <path id="DejaVuSans-56" d="M 1831 0 
L 50 4666 
L 709 4666 
L 2188 738 
L 3669 4666 
L 4325 4666 
L 2547 0 
L 1831 0 
z
" transform="scale(0.015625)"/>
       <path id="DejaVuSans-61" d="M 2194 1759 
Q 1497 1759 1228 1600 
Q 959 1441 959 1056 
Q 959 750 1161 570 
Q 1363 391 1709 391 
Q 2188 391 2477 730 
Q 2766 1069 2766 1631 
L 2766 1759 
L 2194 1759 
z
M 3341 1997 
L 3341 0 
L 2766 0 
L 2766 531 
Q 2569 213 2275 61 
Q 1981 -91 1556 -91 
Q 1019 -91 701 211 
Q 384 513 384 1019 
Q 384 1609 779 1909 
Q 1175 2209 1959 2209 
L 2766 2209 
L 2766 2266 
Q 2766 2663 2505 2880 
Q 2244 3097 1772 3097 
Q 1472 3097 1187 3025 
Q 903 2953 641 2809 
L 641 3341 
Q 956 3463 1253 3523 
Q 1550 3584 1831 3584 
Q 2591 3584 2966 3190 
Q 3341 2797 3341 1997 
z
" transform="scale(0.015625)"/>
       <path id="DejaVuSans-65" d="M 3597 1894 
L 3597 1613 
L 953 1613 
Q 991 1019 1311 708 
Q 1631 397 2203 397 
Q 2534 397 2845 478 
Q 3156 559 3463 722 
L 3463 178 
Q 3153 47 2828 -22 
Q 2503 -91 2169 -91 
Q 1331 -91 842 396 
Q 353 884 353 1716 
Q 353 2575 817 3079 
Q 1281 3584 2069 3584 
Q 2775 3584 3186 3129 
Q 3597 2675 3597 1894 
z
M 3022 2063 
Q 3016 2534 2758 2815 
Q 2500 3097 2075 3097 
Q 1594 3097 1305 2825 
Q 1016 2553 972 2059 
L 3022 2063 
z
" transform="scale(0.015625)"/>
       <path id="DejaVuSans-5b" d="M 550 4863 
L 1875 4863 
L 1875 4416 
L 1125 4416 
L 1125 -397 
L 1875 -397 
L 1875 -844 
L 550 -844 
L 550 4863 
z
" transform="scale(0.015625)"/>
       <path id="DejaVuSans-5d" d="M 1947 4863 
L 1947 -844 
L 622 -844 
L 622 -397 
L 1369 -397 
L 1369 4416 
L 622 4416 
L 622 4863 
L 1947 4863 
z
" transform="scale(0.015625)"/>
      </defs>
      <use xlink:href="#DejaVuSans-49" transform="translate(0 0.015625)"/>
      <use xlink:href="#DejaVuSans-6e" transform="translate(29.492188 0.015625)"/>
      <use xlink:href="#DejaVuSans-70" transform="translate(92.871094 0.015625)"/>
      <use xlink:href="#DejaVuSans-75" transform="translate(156.347656 0.015625)"/>
      <use xlink:href="#DejaVuSans-74" transform="translate(219.726562 0.015625)"/>
      <use xlink:href="#DejaVuSans-20" transform="translate(258.935547 0.015625)"/>
      <use xlink:href="#DejaVuSans-56" transform="translate(290.722656 0.015625)"/>
      <use xlink:href="#DejaVuSans-6f" transform="translate(359.130859 0.015625)"/>
      <use xlink:href="#DejaVuSans-6c" transform="translate(420.3125 0.015625)"/>
      <use xlink:href="#DejaVuSans-74" transform="translate(448.095703 0.015625)"/>
      <use xlink:href="#DejaVuSans-61" transform="translate(487.304688 0.015625)"/>
      <use xlink:href="#DejaVuSans-67" transform="translate(548.583984 0.015625)"/>
      <use xlink:href="#DejaVuSans-65" transform="translate(612.060547 0.015625)"/>
      <use xlink:href="#DejaVuSans-2c" transform="translate(673.583984 0.015625)"/>
      <use xlink:href="#DejaVuSans-20" transform="translate(705.371094 0.015625)"/>
      <use xlink:href="#DejaVuSans-Oblique-56" transform="translate(737.158203 0.015625)"/>
      <use xlink:href="#DejaVuSans-69" transform="translate(805.566406 -16.390625) scale(0.7)"/>
      <use xlink:href="#DejaVuSans-6e" transform="translate(825.014648 -16.390625) scale(0.7)"/>
      <use xlink:href="#DejaVuSans-20" transform="translate(872.114258 0.015625)"/>
      <use xlink:href="#DejaVuSans-5b" transform="translate(903.901367 0.015625)"/>
      <use xlink:href="#DejaVuSans-56" transform="translate(942.915039 0.015625)"/>
      <use xlink:href="#DejaVuSans-5d" transform="translate(1011.323242 0.015625)"/>
     </g>
    </g>
   </g>
   <g id="matplotlib.axis_2">
    <g id="ytick_1">
     <g id="line2d_4">
      <defs>
       <path id="mea6c64f4d0" d="M 0 0 
L -3 0 
" style="stroke: #000000; stroke-width: 0.8"/>
      </defs>
      <g>
       <use xlink:href="#mea6c64f4d0" x="43.2" y="90.129905" style="stroke: #000000; stroke-width: 0.8"/>
      </g>
     </g>
     <g id="text_5">
      <!-- $V_\mathsf{out,low}$ -->
      <g transform="translate(16.68 92.319905) scale(0.06 -0.06)">
       <use xlink:href="#DejaVuSans-Oblique-56" transform="translate(0 0.09375)"/>
       <use xlink:href="#DejaVuSans-6f" transform="translate(68.408203 -16.3125) scale(0.7)"/>
       <use xlink:href="#DejaVuSans-75" transform="translate(111.235352 -16.3125) scale(0.7)"/>
       <use xlink:href="#DejaVuSans-74" transform="translate(155.600586 -16.3125) scale(0.7)"/>
       <use xlink:href="#DejaVuSans-2c" transform="translate(183.046875 -16.3125) scale(0.7)"/>
       <use xlink:href="#DejaVuSans-6c" transform="translate(218.935547 -16.3125) scale(0.7)"/>
       <use xlink:href="#DejaVuSans-6f" transform="translate(238.383789 -16.3125) scale(0.7)"/>
       <use xlink:href="#DejaVuSans-77" transform="translate(281.210938 -16.3125) scale(0.7)"/>
      </g>
     </g>
    </g>
    <g id="ytick_2">
     <g id="line2d_5">
      <g>
       <use xlink:href="#mea6c64f4d0" x="43.2" y="52.2" style="stroke: #000000; stroke-width: 0.8"/>
      </g>
     </g>
     <g id="text_6">
      <!-- $V_\mathsf{DD}/2$ -->
      <g transform="translate(20.82 54.479531) scale(0.06 -0.06)">
       <defs>
        <path id="DejaVuSans-44" d="M 1259 4147 
L 1259 519 
L 2022 519 
Q 2988 519 3436 956 
Q 3884 1394 3884 2338 
Q 3884 3275 3436 3711 
Q 2988 4147 2022 4147 
L 1259 4147 
z
M 628 4666 
L 1925 4666 
Q 3281 4666 3915 4102 
Q 4550 3538 4550 2338 
Q 4550 1131 3912 565 
Q 3275 0 1925 0 
L 628 0 
L 628 4666 
z
" transform="scale(0.015625)"/>
        <path id="DejaVuSans-2f" d="M 1625 4666 
L 2156 4666 
L 531 -594 
L 0 -594 
L 1625 4666 
z
" transform="scale(0.015625)"/>
        <path id="DejaVuSans-32" d="M 1228 531 
L 3431 531 
L 3431 0 
L 469 0 
L 469 531 
Q 828 903 1448 1529 
Q 2069 2156 2228 2338 
Q 2531 2678 2651 2914 
Q 2772 3150 2772 3378 
Q 2772 3750 2511 3984 
Q 2250 4219 1831 4219 
Q 1534 4219 1204 4116 
Q 875 4013 500 3803 
L 500 4441 
Q 881 4594 1212 4672 
Q 1544 4750 1819 4750 
Q 2544 4750 2975 4387 
Q 3406 4025 3406 3419 
Q 3406 3131 3298 2873 
Q 3191 2616 2906 2266 
Q 2828 2175 2409 1742 
Q 1991 1309 1228 531 
z
" transform="scale(0.015625)"/>
       </defs>
       <use xlink:href="#DejaVuSans-Oblique-56" transform="translate(0 0.78125)"/>
       <use xlink:href="#DejaVuSans-44" transform="translate(68.408203 -15.625) scale(0.7)"/>
       <use xlink:href="#DejaVuSans-44" transform="translate(122.30957 -15.625) scale(0.7)"/>
       <use xlink:href="#DejaVuSans-2f" transform="translate(178.945312 0.78125)"/>
       <use xlink:href="#DejaVuSans-32" transform="translate(209.011719 0.78125)"/>
      </g>
     </g>
    </g>
    <g id="ytick_3">
     <g id="line2d_6">
      <g>
       <use xlink:href="#mea6c64f4d0" x="43.2" y="13.628571" style="stroke: #000000; stroke-width: 0.8"/>
      </g>
     </g>
     <g id="text_7">
      <!-- $V_\mathsf{out,high}$ -->
      <g transform="translate(14.7 12.60904) scale(0.06 -0.06)">
       <use xlink:href="#DejaVuSans-Oblique-56" transform="translate(0 0.09375)"/>
       <use xlink:href="#DejaVuSans-6f" transform="translate(68.408203 -16.3125) scale(0.7)"/>
       <use xlink:href="#DejaVuSans-75" transform="translate(111.235352 -16.3125) scale(0.7)"/>
       <use xlink:href="#DejaVuSans-74" transform="translate(155.600586 -16.3125) scale(0.7)"/>
       <use xlink:href="#DejaVuSans-2c" transform="translate(183.046875 -16.3125) scale(0.7)"/>
       <use xlink:href="#DejaVuSans-68" transform="translate(218.935547 -16.3125) scale(0.7)"/>
       <use xlink:href="#DejaVuSans-69" transform="translate(263.300781 -16.3125) scale(0.7)"/>
       <use xlink:href="#DejaVuSans-67" transform="translate(282.749023 -16.3125) scale(0.7)"/>
       <use xlink:href="#DejaVuSans-68" transform="translate(327.182617 -16.3125) scale(0.7)"/>
      </g>
      <!-- $\left(= V_\mathsf{DD}\right)$ -->
      <g transform="translate(14.4 19.939915) scale(0.06 -0.06)">
       <defs>
        <path id="DejaVuSans-28" d="M 1984 4856 
Q 1566 4138 1362 3434 
Q 1159 2731 1159 2009 
Q 1159 1288 1364 580 
Q 1569 -128 1984 -844 
L 1484 -844 
Q 1016 -109 783 600 
Q 550 1309 550 2009 
Q 550 2706 781 3412 
Q 1013 4119 1484 4856 
L 1984 4856 
z
" transform="scale(0.015625)"/>
        <path id="DejaVuSans-3d" d="M 678 2906 
L 4684 2906 
L 4684 2381 
L 678 2381 
L 678 2906 
z
M 678 1631 
L 4684 1631 
L 4684 1100 
L 678 1100 
L 678 1631 
z
" transform="scale(0.015625)"/>
        <path id="DejaVuSans-29" d="M 513 4856 
L 1013 4856 
Q 1481 4119 1714 3412 
Q 1947 2706 1947 2009 
Q 1947 1309 1714 600 
Q 1481 -109 1013 -844 
L 513 -844 
Q 928 -128 1133 580 
Q 1338 1288 1338 2009 
Q 1338 2731 1133 3434 
Q 928 4138 513 4856 
z
" transform="scale(0.015625)"/>
       </defs>
       <use xlink:href="#DejaVuSans-28" transform="translate(0 0.125)"/>
       <use xlink:href="#DejaVuSans-3d" transform="translate(58.496094 0.125)"/>
       <use xlink:href="#DejaVuSans-Oblique-56" transform="translate(161.767578 0.125)"/>
       <use xlink:href="#DejaVuSans-44" transform="translate(230.175781 -16.28125) scale(0.7)"/>
       <use xlink:href="#DejaVuSans-44" transform="translate(284.077148 -16.28125) scale(0.7)"/>
       <use xlink:href="#DejaVuSans-29" transform="translate(340.712891 0.125)"/>
      </g>
     </g>
    </g>
    <g id="text_8">
     <!-- Output Voltage, $V_\mathsf{out}$ [V] -->
     <g transform="translate(8.72 99.8) rotate(-90) scale(0.08 -0.08)">
      <defs>
       <path id="DejaVuSans-4f" d="M 2522 4238 
Q 1834 4238 1429 3725 
Q 1025 3213 1025 2328 
Q 1025 1447 1429 934 
Q 1834 422 2522 422 
Q 3209 422 3611 934 
Q 4013 1447 4013 2328 
Q 4013 3213 3611 3725 
Q 3209 4238 2522 4238 
z
M 2522 4750 
Q 3503 4750 4090 4092 
Q 4678 3434 4678 2328 
Q 4678 1225 4090 567 
Q 3503 -91 2522 -91 
Q 1538 -91 948 565 
Q 359 1222 359 2328 
Q 359 3434 948 4092 
Q 1538 4750 2522 4750 
z
" transform="scale(0.015625)"/>
      </defs>
      <use xlink:href="#DejaVuSans-4f" transform="translate(0 0.015625)"/>
      <use xlink:href="#DejaVuSans-75" transform="translate(78.710938 0.015625)"/>
      <use xlink:href="#DejaVuSans-74" transform="translate(142.089844 0.015625)"/>
      <use xlink:href="#DejaVuSans-70" transform="translate(181.298828 0.015625)"/>
      <use xlink:href="#DejaVuSans-75" transform="translate(244.775391 0.015625)"/>
      <use xlink:href="#DejaVuSans-74" transform="translate(308.154297 0.015625)"/>
      <use xlink:href="#DejaVuSans-20" transform="translate(347.363281 0.015625)"/>
      <use xlink:href="#DejaVuSans-56" transform="translate(379.150391 0.015625)"/>
      <use xlink:href="#DejaVuSans-6f" transform="translate(447.558594 0.015625)"/>
      <use xlink:href="#DejaVuSans-6c" transform="translate(508.740234 0.015625)"/>
      <use xlink:href="#DejaVuSans-74" transform="translate(536.523438 0.015625)"/>
      <use xlink:href="#DejaVuSans-61" transform="translate(575.732422 0.015625)"/>
      <use xlink:href="#DejaVuSans-67" transform="translate(637.011719 0.015625)"/>
      <use xlink:href="#DejaVuSans-65" transform="translate(700.488281 0.015625)"/>
      <use xlink:href="#DejaVuSans-2c" transform="translate(762.011719 0.015625)"/>
      <use xlink:href="#DejaVuSans-20" transform="translate(793.798828 0.015625)"/>
      <use xlink:href="#DejaVuSans-Oblique-56" transform="translate(825.585938 0.015625)"/>
      <use xlink:href="#DejaVuSans-6f" transform="translate(893.994141 -16.390625) scale(0.7)"/>
      <use xlink:href="#DejaVuSans-75" transform="translate(936.821289 -16.390625) scale(0.7)"/>
      <use xlink:href="#DejaVuSans-74" transform="translate(981.186523 -16.390625) scale(0.7)"/>
      <use xlink:href="#DejaVuSans-20" transform="translate(1011.367188 0.015625)"/>
      <use xlink:href="#DejaVuSans-5b" transform="translate(1043.154297 0.015625)"/>
      <use xlink:href="#DejaVuSans-56" transform="translate(1082.167969 0.015625)"/>
      <use xlink:href="#DejaVuSans-5d" transform="translate(1150.576172 0.015625)"/>
     </g>
    </g>
   </g>
   <g id="line2d_7">
    <path d="M 43.3008 13.638928 
L 57.29184 13.732807 
L 60.81984 13.97376 
L 64.1664 14.610281 
L 65.53728 14.981243 
L 66.0816 15.274115 
L 66.64608 15.529206 
L 69.16608 17.28847 
L 69.5088 17.766611 
L 69.99264 18.397474 
L 70.87968 19.528634 
L 71.54496 20.766887 
L 72.04896 21.811789 
L 73.50048 25.444576 
L 73.78272 26.776386 
L 74.28672 28.599967 
L 74.42784 28.749947 
L 74.71008 30.374614 
L 74.91168 33.683172 
L 76.02048 67.792039 
L 76.44384 70.919482 
L 76.94784 73.137205 
L 77.3712 75.213409 
L 77.5728 75.802018 
L 77.75424 76.403215 
L 78.29856 77.960064 
L 79.12512 79.57889 
L 79.6896 80.560681 
L 80.17344 80.844538 
L 80.37504 80.828151 
L 80.6976 81.21467 
L 81.06048 81.709208 
L 81.74592 82.143987 
L 81.9072 82.422923 
L 82.33056 82.97834 
L 82.512 83.058036 
L 83.29824 83.842522 
L 83.540161 83.984359 
L 83.761919 84.070631 
L 84.003841 84.177618 
L 85.01184 84.841408 
L 85.455359 85.303281 
L 85.757759 85.51077 
L 86.20128 85.61216 
L 87.410879 86.161576 
L 87.814081 86.248614 
L 88.176959 86.325401 
L 90.374401 86.890656 
L 91.200961 86.982903 
L 92.329921 87.328552 
L 93.317759 87.560751 
L 93.720961 87.567933 
L 93.983041 87.613126 
L 98.136 88.215199 
L 98.357759 88.251343 
L 99.16416 88.481672 
L 100.53504 88.587058 
L 105.030718 88.917639 
L 105.615359 88.94666 
L 114.42528 89.497144 
L 117.61056 89.655185 
L 118.900802 89.696616 
L 119.969282 89.626022 
L 122.086082 89.683079 
L 129.202561 89.878443 
L 129.827519 89.91579 
L 131.500802 89.916749 
L 144 90.115855 
L 144 90.115855 
" clip-path="url(#p77b3c83b55)" style="fill: none; stroke: #330597; stroke-linecap: square"/>
   </g>
   <g id="LineCollection_1">
    <path d="M 38.16 13.637753 
L 58.32 13.637753 
" clip-path="url(#p77b3c83b55)" style="fill: none; stroke: #000000; stroke-opacity: 0.3"/>
   </g>
   <g id="LineCollection_2">
    <path d="M 38.16 90.129905 
L 123.84 90.129905 
" clip-path="url(#p77b3c83b55)" style="fill: none; stroke: #000000; stroke-opacity: 0.3"/>
   </g>
   <g id="LineCollection_3">
    <path d="M 38.16 52.2 
L 75.395289 52.2 
" clip-path="url(#p77b3c83b55)" style="fill: none; stroke: #000000; stroke-opacity: 0.3"/>
   </g>
   <g id="LineCollection_4">
    <path d="M 75.395289 97.2 
L 75.395289 52.2 
" clip-path="url(#p77b3c83b55)" style="fill: none; stroke: #000000; stroke-opacity: 0.3"/>
   </g>
   <g id="LineCollection_5">
    <path d="M 123.84 97.2 
L 123.84 90.129905 
" clip-path="url(#p77b3c83b55)" style="fill: none; stroke: #000000; stroke-opacity: 0.3"/>
   </g>
   <g id="LineCollection_6">
    <path d="M 63.862955 97.2 
L 63.862955 13.637753 
" clip-path="url(#p77b3c83b55)" style="fill: none; stroke: #000000; stroke-opacity: 0.3"/>
   </g>
   <g id="line2d_8">
    <path d="M 74.400133 -1 
L 76.794494 127 
L 76.794494 127 
" clip-path="url(#p77b3c83b55)" style="fill: none; stroke-dasharray: 3.7,1.6; stroke-dashoffset: 0; stroke: #000000"/>
   </g>
   <g id="patch_3">
    <path d="M 43.2 97.2 
L 43.2 7.2 
" style="fill: none; stroke: #000000; stroke-linejoin: miter; stroke-linecap: square"/>
   </g>
   <g id="patch_4">
    <path d="M 144 97.2 
L 144 7.2 
" style="fill: none; stroke: #000000; stroke-linejoin: miter; stroke-linecap: square"/>
   </g>
   <g id="patch_5">
    <path d="M 43.2 97.2 
L 144 97.2 
" style="fill: none; stroke: #000000; stroke-linejoin: miter; stroke-linecap: square"/>
   </g>
   <g id="patch_6">
    <path d="M 43.2 7.2 
L 144 7.2 
" style="fill: none; stroke: #000000; stroke-linejoin: miter; stroke-linecap: square"/>
   </g>
   <g id="text_9">
    <!-- Gain -->
    <g transform="translate(75.395289 12.588728) scale(0.05 -0.05)">
     <defs>
      <path id="DejaVuSans-47" d="M 3809 666 
L 3809 1919 
L 2778 1919 
L 2778 2438 
L 4434 2438 
L 4434 434 
Q 4069 175 3628 42 
Q 3188 -91 2688 -91 
Q 1594 -91 976 548 
Q 359 1188 359 2328 
Q 359 3472 976 4111 
Q 1594 4750 2688 4750 
Q 3144 4750 3555 4637 
Q 3966 4525 4313 4306 
L 4313 3634 
Q 3963 3931 3569 4081 
Q 3175 4231 2741 4231 
Q 1884 4231 1454 3753 
Q 1025 3275 1025 2328 
Q 1025 1384 1454 906 
Q 1884 428 2741 428 
Q 3075 428 3337 486 
Q 3600 544 3809 666 
z
" transform="scale(0.015625)"/>
     </defs>
     <use xlink:href="#DejaVuSans-47"/>
     <use xlink:href="#DejaVuSans-61" transform="translate(77.490234 0)"/>
     <use xlink:href="#DejaVuSans-69" transform="translate(138.769531 0)"/>
     <use xlink:href="#DejaVuSans-6e" transform="translate(166.552734 0)"/>
    </g>
   </g>
   <g id="text_10">
    <!-- Depletion-load -->
    <g transform="translate(96.819375 16.259062) scale(0.06 -0.06)">
     <defs>
      <path id="DejaVuSans-2d" d="M 313 2009 
L 1997 2009 
L 1997 1497 
L 313 1497 
L 313 2009 
z
" transform="scale(0.015625)"/>
      <path id="DejaVuSans-64" d="M 2906 2969 
L 2906 4863 
L 3481 4863 
L 3481 0 
L 2906 0 
L 2906 525 
Q 2725 213 2448 61 
Q 2172 -91 1784 -91 
Q 1150 -91 751 415 
Q 353 922 353 1747 
Q 353 2572 751 3078 
Q 1150 3584 1784 3584 
Q 2172 3584 2448 3432 
Q 2725 3281 2906 2969 
z
M 947 1747 
Q 947 1113 1208 752 
Q 1469 391 1925 391 
Q 2381 391 2643 752 
Q 2906 1113 2906 1747 
Q 2906 2381 2643 2742 
Q 2381 3103 1925 3103 
Q 1469 3103 1208 2742 
Q 947 2381 947 1747 
z
" transform="scale(0.015625)"/>
     </defs>
     <use xlink:href="#DejaVuSans-44"/>
     <use xlink:href="#DejaVuSans-65" transform="translate(77.001953 0)"/>
     <use xlink:href="#DejaVuSans-70" transform="translate(138.525391 0)"/>
     <use xlink:href="#DejaVuSans-6c" transform="translate(202.001953 0)"/>
     <use xlink:href="#DejaVuSans-65" transform="translate(229.785156 0)"/>
     <use xlink:href="#DejaVuSans-74" transform="translate(291.308594 0)"/>
     <use xlink:href="#DejaVuSans-69" transform="translate(330.517578 0)"/>
     <use xlink:href="#DejaVuSans-6f" transform="translate(358.300781 0)"/>
     <use xlink:href="#DejaVuSans-6e" transform="translate(419.482422 0)"/>
     <use xlink:href="#DejaVuSans-2d" transform="translate(482.861328 0)"/>
     <use xlink:href="#DejaVuSans-6c" transform="translate(518.945312 0)"/>
     <use xlink:href="#DejaVuSans-6f" transform="translate(546.728516 0)"/>
     <use xlink:href="#DejaVuSans-61" transform="translate(607.910156 0)"/>
     <use xlink:href="#DejaVuSans-64" transform="translate(669.189453 0)"/>
    </g>
    <!-- Inverter -->
    <g transform="translate(106.903594 22.97775) scale(0.06 -0.06)">
     <defs>
      <path id="DejaVuSans-76" d="M 191 3500 
L 800 3500 
L 1894 563 
L 2988 3500 
L 3597 3500 
L 2284 0 
L 1503 0 
L 191 3500 
z
" transform="scale(0.015625)"/>
      <path id="DejaVuSans-72" d="M 2631 2963 
Q 2534 3019 2420 3045 
Q 2306 3072 2169 3072 
Q 1681 3072 1420 2755 
Q 1159 2438 1159 1844 
L 1159 0 
L 581 0 
L 581 3500 
L 1159 3500 
L 1159 2956 
Q 1341 3275 1631 3429 
Q 1922 3584 2338 3584 
Q 2397 3584 2469 3576 
Q 2541 3569 2628 3553 
L 2631 2963 
z
" transform="scale(0.015625)"/>
     </defs>
     <use xlink:href="#DejaVuSans-49"/>
     <use xlink:href="#DejaVuSans-6e" transform="translate(29.492188 0)"/>
     <use xlink:href="#DejaVuSans-76" transform="translate(92.871094 0)"/>
     <use xlink:href="#DejaVuSans-65" transform="translate(152.050781 0)"/>
     <use xlink:href="#DejaVuSans-72" transform="translate(213.574219 0)"/>
     <use xlink:href="#DejaVuSans-74" transform="translate(254.6875 0)"/>
     <use xlink:href="#DejaVuSans-65" transform="translate(293.896484 0)"/>
     <use xlink:href="#DejaVuSans-72" transform="translate(355.419922 0)"/>
    </g>
   </g>
  </g>
 </g>
 <defs>
  <clipPath id="p77b3c83b55">
   <rect x="43.2" y="7.2" width="100.8" height="90"/>
  </clipPath>
 </defs>
</svg>
